<svg width="216" height="75" viewBox="0 0 216 75" fill="none" xmlns="http://www.w3.org/2000/svg">
<path d="M91.208 33.4768H82.2485V53.1423H71.0145V0.498047H91.2635C97.6988 0.498047 102.664 1.87437 106.159 4.60054C109.654 7.35318 111.402 11.2175 111.402 16.2199C111.402 19.7665 110.597 22.7309 108.988 25.0865C107.379 27.4686 104.938 29.3478 101.665 30.7506L113.454 52.0042V53.1158H101.721L91.208 33.4768ZM82.2762 24.7954H91.3467C94.176 24.7954 96.3396 24.1072 97.8929 22.7309C99.4463 21.3546 100.223 19.4754 100.223 17.0668C100.223 14.6053 99.5018 12.6732 98.0316 11.2704C96.5615 9.86761 94.3424 9.15298 91.319 9.15298H82.304V24.7954H82.2762Z" fill="white"/>
<path d="M137.919 53.2226C131.983 53.2226 127.129 51.4757 123.412 48.0084C119.668 44.5412 117.809 39.9093 117.809 34.1129V33.1071C117.809 29.2164 118.586 25.7491 120.167 22.6789C121.748 19.6086 123.967 17.253 126.852 15.612C129.737 13.9445 133.037 13.124 136.727 13.124C142.274 13.124 146.629 14.7915 149.819 18.1264C153.009 21.4613 154.59 26.1991 154.59 32.3131V36.5215H128.793C129.154 39.0359 130.208 41.0739 131.956 42.5826C133.703 44.1177 135.95 44.8588 138.641 44.8588C142.801 44.8588 146.074 43.4295 148.404 40.5446L153.73 46.2351C152.094 48.4319 149.902 50.1259 147.128 51.3698C144.355 52.6138 141.276 53.2226 137.919 53.2226ZM136.671 21.4613C134.535 21.4613 132.788 22.1495 131.456 23.5523C130.125 24.9286 129.265 26.9137 128.904 29.5075H143.966V28.687C143.911 26.3843 143.273 24.611 142.025 23.367C140.749 22.0966 138.973 21.4613 136.671 21.4613Z" fill="white"/>
<path d="M159.028 32.8945C159.028 26.8599 160.443 22.0692 163.272 18.4961C166.102 14.9229 169.985 13.1496 174.895 13.1496C178.833 13.1496 182.107 14.5524 184.658 17.358V0.498047H195.504V53.1423H185.713L185.213 48.4046C182.523 51.6072 179.055 53.2217 174.811 53.2217C170.04 53.2217 166.212 51.4219 163.328 47.8487C160.471 44.2756 159.028 39.2997 159.028 32.8945ZM169.846 33.6621C169.846 37.2881 170.512 40.0672 171.843 41.9994C173.175 43.9315 175.089 44.9108 177.613 44.9108C180.969 44.9108 183.327 43.561 184.686 40.8613V25.5894C183.327 22.8897 180.997 21.5399 177.668 21.5399C172.454 21.5399 169.846 25.5894 169.846 33.6621Z" fill="white"/>
<path d="M203.854 5.81805C203.854 4.28293 204.408 2.98601 205.49 2.00671C206.572 1.00093 208.042 0.498047 209.928 0.498047C211.787 0.498047 213.257 1.00093 214.339 2.00671C215.448 3.01248 215.975 4.28293 215.975 5.81805C215.975 7.37965 215.42 8.67656 214.311 9.68234C213.201 10.6881 211.731 11.191 209.9 11.191C208.07 11.191 206.6 10.6881 205.49 9.68234C204.408 8.67656 203.854 7.40611 203.854 5.81805Z" fill="white"/>
<path d="M215.337 13.1494H204.491V53.1421H215.337V13.1494Z" fill="white"/>
<path d="M135.562 69.7106C134.397 69.7106 133.343 69.446 132.399 68.8901C131.456 68.3343 130.735 67.5668 130.208 66.6139C129.681 65.6346 129.431 64.5494 129.431 63.3319V62.8026C129.431 61.5586 129.681 60.4205 130.208 59.4147C130.707 58.4089 131.429 57.6149 132.344 57.0326C133.259 56.4503 134.23 56.1592 135.312 56.1592C136.976 56.1592 138.28 56.6885 139.279 57.7737C140.277 58.8589 140.749 60.3411 140.749 62.2203V63.0408H130.985V63.3055C130.985 64.7876 131.429 66.0316 132.316 67.0109C133.204 67.9902 134.313 68.4931 135.673 68.4931C136.477 68.4931 137.198 68.3608 137.808 68.0696C138.419 67.7785 139.001 67.3285 139.5 66.7198L140.444 67.4079C139.306 68.9431 137.67 69.7106 135.562 69.7106ZM135.284 57.4032C134.147 57.4032 133.176 57.8002 132.399 58.5942C131.623 59.3882 131.151 60.4734 130.985 61.7968H139.195V61.638C139.14 60.394 138.779 59.3618 138.058 58.5677C137.365 57.8002 136.421 57.4032 135.284 57.4032Z" fill="white"/>
<path d="M147.961 61.7183L151.65 56.4248H153.453L148.821 62.83L153.675 69.4734H151.872L147.961 63.9416L144.05 69.4734H142.274L147.101 62.83L142.468 56.4248H144.244L147.961 61.7183Z" fill="white"/>
<path d="M167.266 63.0672C167.266 65.1053 166.795 66.7198 165.852 67.9108C164.909 69.1019 163.633 69.7106 162.052 69.7106C160.165 69.7106 158.751 69.0754 157.752 67.8314V74.5013H156.254V56.3974H157.669L157.752 58.2501C158.751 56.8473 160.165 56.1592 162.052 56.1592C163.688 56.1592 164.964 56.7415 165.907 57.9325C166.85 59.1236 167.294 60.7646 167.294 62.8555V63.0672H167.266ZM165.741 62.829C165.741 61.1616 165.38 59.8382 164.659 58.8854C163.938 57.906 162.939 57.4296 161.663 57.4296C160.748 57.4296 159.943 57.6414 159.278 58.0649C158.612 58.4883 158.113 59.1236 157.752 59.9176V66.1904C158.113 66.9315 158.64 67.5138 159.305 67.9108C159.971 68.3078 160.776 68.4931 161.691 68.4931C162.967 68.4931 163.966 68.0167 164.659 67.0374C165.408 66.0846 165.741 64.6553 165.741 62.829Z" fill="white"/>
<path d="M176.947 57.6414C176.614 57.5884 176.281 57.562 175.921 57.562C174.978 57.562 174.173 57.8266 173.535 58.3295C172.897 58.8324 172.426 59.5735 172.148 60.5263V69.4989H170.651V56.4239H172.121L172.148 58.4883C172.953 56.9532 174.229 56.1592 176.004 56.1592C176.42 56.1592 176.753 56.2121 177.003 56.318L176.947 57.6414Z" fill="white"/>
<path d="M184.409 69.7106C183.244 69.7106 182.19 69.446 181.247 68.8901C180.304 68.3343 179.582 67.5668 179.055 66.6139C178.528 65.6346 178.279 64.5494 178.279 63.3319V62.8026C178.279 61.5586 178.528 60.4205 179.055 59.4147C179.555 58.4089 180.276 57.6149 181.191 57.0326C182.107 56.4503 183.077 56.1592 184.159 56.1592C185.823 56.1592 187.127 56.6885 188.126 57.7737C189.124 58.8589 189.596 60.3411 189.596 62.2203V63.0408H179.832V63.3055C179.832 64.7876 180.276 66.0316 181.163 67.0109C182.051 67.9902 183.161 68.4931 184.52 68.4931C185.324 68.4931 186.045 68.3608 186.656 68.0696C187.266 67.7785 187.848 67.3285 188.348 66.7198L189.291 67.4079C188.153 68.9431 186.517 69.7106 184.409 69.7106ZM184.131 57.4032C182.994 57.4032 182.023 57.8002 181.247 58.5942C180.47 59.3882 179.998 60.4734 179.832 61.7968H188.043V61.638C187.987 60.394 187.626 59.3618 186.905 58.5677C186.212 57.8002 185.269 57.4032 184.131 57.4032Z" fill="white"/>
<path d="M200.691 66.164C200.691 65.4493 200.386 64.8671 199.776 64.4436C199.166 64.0201 198.25 63.676 197.058 63.4113C195.837 63.1731 194.894 62.882 194.228 62.5644C193.562 62.2467 193.063 61.8497 192.73 61.3998C192.397 60.9498 192.231 60.394 192.231 59.7323C192.231 58.7001 192.675 57.8531 193.59 57.165C194.506 56.5033 195.643 56.1592 197.058 56.1592C198.583 56.1592 199.804 56.5297 200.747 57.2444C201.69 57.959 202.134 58.9118 202.134 60.0764H200.608C200.608 59.3088 200.275 58.6736 199.609 58.1707C198.944 57.6678 198.084 57.4032 197.085 57.4032C196.087 57.4032 195.282 57.6149 194.7 58.0384C194.09 58.4619 193.784 59.0177 193.784 59.6794C193.784 60.3411 194.034 60.844 194.533 61.188C195.033 61.5586 195.948 61.8762 197.279 62.1673C198.611 62.4585 199.609 62.7761 200.275 63.1202C200.941 63.4643 201.44 63.8613 201.745 64.3377C202.078 64.8141 202.217 65.3964 202.217 66.0581C202.217 67.1697 201.745 68.0432 200.83 68.7049C199.887 69.3666 198.666 69.6842 197.168 69.6842C195.56 69.6842 194.284 69.3136 193.285 68.5725C192.286 67.8314 191.787 66.9051 191.787 65.767H193.313C193.368 66.6139 193.757 67.2756 194.422 67.752C195.116 68.2284 196.031 68.4667 197.141 68.4667C198.195 68.4667 199.055 68.2549 199.693 67.805C200.386 67.3815 200.691 66.8257 200.691 66.164Z" fill="white"/>
<path d="M213.839 66.164C213.839 65.4493 213.534 64.8671 212.924 64.4436C212.314 64.0201 211.398 63.676 210.205 63.4113C208.985 63.1731 208.042 62.882 207.376 62.5644C206.71 62.2467 206.211 61.8497 205.878 61.3998C205.545 60.9498 205.379 60.394 205.379 59.7323C205.379 58.7001 205.823 57.8531 206.738 57.165C207.654 56.5033 208.791 56.1592 210.205 56.1592C211.731 56.1592 212.952 56.5297 213.895 57.2444C214.838 57.959 215.282 58.9118 215.282 60.0764H213.756C213.756 59.3088 213.423 58.6736 212.757 58.1707C212.092 57.6678 211.232 57.4032 210.233 57.4032C209.235 57.4032 208.43 57.6149 207.848 58.0384C207.237 58.4619 206.932 59.0177 206.932 59.6794C206.932 60.3411 207.182 60.844 207.681 61.188C208.181 61.5586 209.096 61.8762 210.427 62.1673C211.759 62.4585 212.757 62.7761 213.423 63.1202C214.089 63.4643 214.588 63.8613 214.893 64.3377C215.226 64.8141 215.365 65.3964 215.365 66.0581C215.365 67.1697 214.893 68.0432 213.978 68.7049C213.035 69.3666 211.814 69.6842 210.316 69.6842C208.708 69.6842 207.432 69.3136 206.433 68.5725C205.434 67.8314 204.935 66.9051 204.935 65.767H206.461C206.516 66.6139 206.905 67.2756 207.57 67.752C208.264 68.2284 209.179 68.4667 210.289 68.4667C211.343 68.4667 212.203 68.2549 212.841 67.805C213.506 67.3815 213.839 66.8257 213.839 66.164Z" fill="white"/>
<path d="M63.6638 28.2888V42.1049L51.1261 35.1968L41.9447 30.1415L38.5884 28.2888L26.0506 21.3807L20.2256 18.1781L13.5129 14.4726L0.975151 7.56456L3.44387 6.21471L13.5129 0.656494L23.5819 6.21471L26.0506 7.56456L38.5884 14.4726L45.3011 18.1781L51.1261 21.3807L63.6638 28.2888Z" fill="white"/>
<path d="M63.6637 42.1045L51.126 48.9861L41.9446 54.0414L38.5883 55.8941L35.2319 54.0414L26.0505 48.9861L38.5883 42.1045V42.078L63.6637 28.2883V42.1045Z" fill="#F3F3F3"/>
<path d="M26.0506 35.1963L13.5129 42.0779V69.7101L6.8002 66.0047L0.97514 62.8021V21.3801L13.5129 28.2882L16.8692 30.1409L26.0506 35.1963Z" fill="white"/>
<path d="M26.0506 62.8019L20.2256 66.0045L13.5129 69.7099V55.8938L26.0506 62.8019Z" fill="white"/>
</svg>
